<mxfile host="65bd71144e">
    <diagram id="0Ba_EZBJ2he-qtsyw1w8" name="Page-1">
        <mxGraphModel dx="917" dy="702" grid="1" gridSize="10" guides="1" tooltips="1" connect="1" arrows="1" fold="1" page="1" pageScale="1" pageWidth="850" pageHeight="1100" math="0" shadow="0">
            <root>
                <mxCell id="0"/>
                <mxCell id="1" parent="0"/>
                <mxCell id="3" style="edgeStyle=none;html=1;" edge="1" parent="1" source="2" target="4">
                    <mxGeometry relative="1" as="geometry">
                        <mxPoint x="390" y="130" as="targetPoint"/>
                    </mxGeometry>
                </mxCell>
                <mxCell id="2" value="Start" style="ellipse;whiteSpace=wrap;html=1;" vertex="1" parent="1">
                    <mxGeometry x="330" y="20" width="120" height="80" as="geometry"/>
                </mxCell>
                <mxCell id="5" style="edgeStyle=none;html=1;" edge="1" parent="1" source="4" target="6">
                    <mxGeometry relative="1" as="geometry">
                        <mxPoint x="390" y="200" as="targetPoint"/>
                    </mxGeometry>
                </mxCell>
                <mxCell id="4" value="a, b" style="rounded=0;whiteSpace=wrap;html=1;" vertex="1" parent="1">
                    <mxGeometry x="330" y="120" width="120" height="60" as="geometry"/>
                </mxCell>
                <mxCell id="7" style="edgeStyle=none;html=1;" edge="1" parent="1" source="6">
                    <mxGeometry relative="1" as="geometry">
                        <mxPoint x="390" y="280" as="targetPoint"/>
                    </mxGeometry>
                </mxCell>
                <mxCell id="8" style="edgeStyle=none;html=1;" edge="1" parent="1" source="6" target="9">
                    <mxGeometry relative="1" as="geometry">
                        <mxPoint x="390" y="280" as="targetPoint"/>
                    </mxGeometry>
                </mxCell>
                <mxCell id="6" value="a, b" style="shape=parallelogram;perimeter=parallelogramPerimeter;whiteSpace=wrap;html=1;fixedSize=1;" vertex="1" parent="1">
                    <mxGeometry x="330" y="200" width="120" height="60" as="geometry"/>
                </mxCell>
                <mxCell id="10" value="false" style="edgeStyle=none;html=1;" edge="1" parent="1" source="9" target="12">
                    <mxGeometry x="-0.0169" relative="1" as="geometry">
                        <mxPoint x="280" y="320" as="targetPoint"/>
                        <Array as="points">
                            <mxPoint x="250" y="320"/>
                        </Array>
                        <mxPoint as="offset"/>
                    </mxGeometry>
                </mxCell>
                <mxCell id="11" value="true" style="edgeStyle=none;html=1;entryX=0.5;entryY=0;entryDx=0;entryDy=0;" edge="1" parent="1" source="9" target="13">
                    <mxGeometry relative="1" as="geometry">
                        <mxPoint x="500" y="320" as="targetPoint"/>
                        <Array as="points">
                            <mxPoint x="550" y="320"/>
                        </Array>
                    </mxGeometry>
                </mxCell>
                <mxCell id="9" value="a &amp;lt; b" style="rhombus;whiteSpace=wrap;html=1;" vertex="1" parent="1">
                    <mxGeometry x="330" y="280" width="120" height="80" as="geometry"/>
                </mxCell>
                <mxCell id="14" style="edgeStyle=none;html=1;" edge="1" parent="1" source="12">
                    <mxGeometry relative="1" as="geometry">
                        <mxPoint x="400" y="480" as="targetPoint"/>
                        <Array as="points">
                            <mxPoint x="400" y="400"/>
                        </Array>
                    </mxGeometry>
                </mxCell>
                <mxCell id="12" value="b" style="shape=document;whiteSpace=wrap;html=1;boundedLbl=1;" vertex="1" parent="1">
                    <mxGeometry x="190" y="360" width="120" height="80" as="geometry"/>
                </mxCell>
                <mxCell id="15" style="edgeStyle=none;html=1;" edge="1" parent="1" source="13" target="16">
                    <mxGeometry relative="1" as="geometry">
                        <mxPoint x="400" y="480" as="targetPoint"/>
                        <Array as="points">
                            <mxPoint x="400" y="400"/>
                        </Array>
                    </mxGeometry>
                </mxCell>
                <mxCell id="13" value="" style="shape=document;whiteSpace=wrap;html=1;boundedLbl=1;" vertex="1" parent="1">
                    <mxGeometry x="490" y="360" width="120" height="80" as="geometry"/>
                </mxCell>
                <mxCell id="16" value="End" style="ellipse;whiteSpace=wrap;html=1;" vertex="1" parent="1">
                    <mxGeometry x="340" y="430" width="120" height="80" as="geometry"/>
                </mxCell>
            </root>
        </mxGraphModel>
    </diagram>
</mxfile>